<svg xmlns="http://www.w3.org/2000/svg"  viewBox="0 0 64 64" width="64px" height="64px"><path fill="#cda1a7" d="M52.927,58H11.073C8.271,58,6,55.729,6,52.927V11.073C6,8.271,8.271,6,11.073,6h41.854	C55.729,6,58,8.271,58,11.073v41.854C58,55.729,55.729,58,52.927,58z"/><path fill="#fff" d="M43,26c-3.309,0-6-2.691-6-6h-4v19c0,2.758-2.242,5-5,5s-5-2.242-5-5s2.242-5,5-5 c0.344,0,0.676,0.035,1,0.102v-4.043C28.672,30.023,28.34,30,28,30c-4.965,0-9,4.035-9,9s4.035,9,9,9s9-4.035,9-9V27.98 c1.676,1.262,3.746,2.02,6,2.02c0.676,0,1.344-0.07,2-0.207v-4.16C44.355,25.863,43.684,26,43,26z"/><rect width="50" height="5" x="7" y="7" fill="#dbb2ba"/><path fill="#8d6c9f" d="M28,49c-5.514,0-10-4.486-10-10s4.486-10,10-10c0.376,0,0.744,0.025,1.106,0.064 C29.615,29.119,30,29.548,30,30.059v4.043c0,0.301-0.135,0.585-0.368,0.774c-0.233,0.19-0.539,0.264-0.833,0.205 C28.533,35.026,28.271,35,28,35c-2.206,0-4,1.794-4,4s1.794,4,4,4s4-1.794,4-4V20c0-0.553,0.448-1,1-1h4c0.552,0,1,0.447,1,1 c0,2.757,2.243,5,5,5c0.531,0,1.09-0.104,1.663-0.309c0.307-0.108,0.647-0.062,0.913,0.124C45.842,25.003,46,25.308,46,25.633 v4.16c0,0.474-0.333,0.883-0.796,0.979c-2.462,0.513-5.015,0.147-7.204-0.984V39C38,44.514,33.514,49,28,49z M28,31 c-4.411,0-8,3.589-8,8s3.589,8,8,8s8-3.589,8-8V27.98c0-0.379,0.214-0.726,0.554-0.895c0.338-0.169,0.745-0.132,1.048,0.096 c1.85,1.393,4.113,2.023,6.398,1.761V26.92C43.663,26.974,43.329,27,43,27c-3.521,0-6.442-2.612-6.929-6H34v18 c0,3.309-2.691,6-6,6s-6-2.691-6-6s2.691-6,6-6V31z"/><path fill="#8d6c9f" d="M52.927,59H11.073C7.725,59,5,56.275,5,52.927V11.073C5,7.725,7.725,5,11.073,5h41.854 C56.275,5,59,7.725,59,11.073v41.854C59,56.275,56.275,59,52.927,59z M11.073,7C8.827,7,7,8.827,7,11.073v41.854 C7,55.173,8.827,57,11.073,57h41.854C55.173,57,57,55.173,57,52.927V11.073C57,8.827,55.173,7,52.927,7H11.073z"/><path fill="#8d6c9f" d="M12,10c-0.551,0-1,0.445-1,1v2c0,0.555,0.449,1,1,1s1-0.445,1-1v-2C13,10.445,12.551,10,12,10z"/><path fill="#8d6c9f" d="M17,10c-0.551,0-1,0.445-1,1v2c0,0.555,0.449,1,1,1s1-0.445,1-1v-2C18,10.445,17.551,10,17,10z"/><path fill="#8d6c9f" d="M22,10c-0.551,0-1,0.445-1,1v2c0,0.555,0.449,1,1,1s1-0.445,1-1v-2C23,10.445,22.551,10,22,10z"/><path fill="#8d6c9f" d="M27,10c-0.551,0-1,0.445-1,1v2c0,0.555,0.449,1,1,1s1-0.445,1-1v-2C28,10.445,27.551,10,27,10z"/><path fill="#8d6c9f" d="M32,10c-0.551,0-1,0.445-1,1v2c0,0.555,0.449,1,1,1s1-0.445,1-1v-2C33,10.445,32.551,10,32,10z"/><path fill="#8d6c9f" d="M37,10c-0.551,0-1,0.445-1,1v2c0,0.555,0.449,1,1,1s1-0.445,1-1v-2C38,10.445,37.551,10,37,10z"/><path fill="#8d6c9f" d="M42,10c-0.551,0-1,0.445-1,1v2c0,0.555,0.449,1,1,1s1-0.445,1-1v-2C43,10.445,42.551,10,42,10z"/><path fill="#8d6c9f" d="M47,10c-0.551,0-1,0.445-1,1v2c0,0.555,0.449,1,1,1s1-0.445,1-1v-2C48,10.445,47.551,10,47,10z"/><path fill="#8d6c9f" d="M52,10c-0.551,0-1,0.445-1,1v2c0,0.555,0.449,1,1,1s1-0.445,1-1v-2C53,10.445,52.551,10,52,10z"/></svg>